<?xml version="1.0" encoding="UTF-8"?>
<svg width="24px" height="24px" viewBox="0 0 24 24" version="1.1" xmlns="http://www.w3.org/2000/svg" xmlns:xlink="http://www.w3.org/1999/xlink">
    <title>book</title>
    <g id="Page-1" stroke="none" stroke-width="1" fill="none" fill-rule="evenodd">
        <g id="book">
            <g id="Group" transform="translate(2.000000, 4.000000)" stroke="#020202" stroke-linecap="round" stroke-linejoin="round" stroke-width="2">
                <path d="M0,2 C0,2 1.5,0 5,0 C8.5,0 10,2 10,2 L10,16 C10,16 8.5,15 5,15 C1.5,15 0,16 0,16 L0,2 Z" id="Path"></path>
                <path d="M10,2 C10,2 11.5,0 15,0 C18.5,0 20,2 20,2 L20,16 C20,16 18.5,15 15,15 C11.5,15 10,16 10,16 L10,2 Z" id="Path"></path>
            </g>
            <rect id="Rectangle" fill-opacity="0" fill="#000000" fill-rule="nonzero" x="0" y="0" width="24" height="24"></rect>
        </g>
    </g>
</svg>